REM MD5 bbc3138b693555e61b239de6fdb5299e
FILE "Dengeki PlayStation D4 (Japan).bin" BINARY
  TRACK 01 MODE2/2352
    INDEX 01 00:00:00
  TRACK 02 AUDIO
    INDEX 00 60:13:39
    INDEX 01 60:15:39
  TRACK 03 AUDIO
    INDEX 00 64:00:34
    INDEX 01 64:02:34
  TRACK 04 AUDIO
    INDEX 00 67:17:63
    INDEX 01 67:19:63
REM LEADOUT 70:49:63
